# xmcd
#
# Track frame offsets: 
#        150
#        23350
#        47575
#        77050
#        110725
#        140500
#        172275
#        198175
#        223600
#        248050
#        287966
#
# Disc length: 3847 seconds
#
# Revision: 0
# Processed by: cddbd v1.5.2PL0 Copyright (c) Steve Scherf et al.
# Submitted via: ExactAudioCopy v1.0b3
#
DISCID=9d0f050b
DTITLE=Tomas Edström - Yasuragi Lounge
DYEAR=2008
DGENRE=New Age
TTITLE0=Down to Earth
TTITLE1=Early Morning
TTITLE2=So far so long
TTITLE3=Endless Flying
TTITLE4=Being beside her
TTITLE5=Two roses, one question
TTITLE6=Sake
TTITLE7=A warm summerbeach
TTITLE8=Okinawa Breezer
TTITLE9=Haruna
TTITLE10=Ringtone
EXTD=
EXTT0=
EXTT1=
EXTT2=
EXTT3=
EXTT4=
EXTT5=
EXTT6=
EXTT7=
EXTT8=
EXTT9=
EXTT10=
PLAYORDER=
